<svg width="60" height="110" viewBox="-1 0 62 110" xmlns="http://www.w3.org/2000/svg">
    <defs>
        <filter id="shadow">
            <feDropShadow dx="2" dy="2" stdDeviation="3" flood-color="black" />
        </filter>
    </defs>
    <rect x="0" y="21" width="15" height="18" rx="5" fill="black" transform="rotate(20 7.5 30)" filter="url(#shadow)"/>
    <rect x="45" y="21" width="15" height="18" rx="5" fill="black" transform="rotate(20 52.5 30)" filter="url(#shadow)"/>
    <rect x="0" y="75" width="15" height="18" rx="5" fill="black" filter="url(#shadow)"/>
    <rect x="45" y="75" width="15" height="18" rx="5" fill="black" filter="url(#shadow)"/>
    <rect x="5" y="5" width="50" height="100" rx="12" fill="blue" filter="url(#shadow)"/>
    <rect x="12" y="45" width="36" height="20" fill="darkblue" rx="4"/>
    <rect x="12" y="18" width="36" height="18" rx="4" fill="lightblue"/>
    <rect x="12" y="74" width="36" height="18" rx="4" fill="lightblue"/>
    <rect x="10" y="8" width="8" height="6" fill="yellow" rx="2"/>
    <rect x="42" y="8" width="8" height="6" fill="yellow" rx="2"/>
    <rect x="10" y="99" width="40" height="3" rx="2" fill="red"/>
</svg>